<svg xmlns="http://www.w3.org/2000/svg" data-name="Layer 1" viewBox="0 0 69.5 86.8625" x="0px" y="0px"><title>false2</title><g data-name="Layer 2"><path d="M19.56,79.74A9.21,9.21,0,0,1,13,77a9.36,9.36,0,0,1,0-13.15L31.83,45,13,26.14A9.32,9.32,0,0,1,26.13,13L45,31.82,63.85,13a9.32,9.32,0,0,1,13.2,13.15L58.17,45l18.9,18.89A9.32,9.32,0,0,1,63.87,77L45,58.17,26.15,77A9.31,9.31,0,0,1,19.56,79.74ZM41.86,55l0,0Zm6.3,0,0,0ZM35,48.13l0,0Zm20.1,0,0,0ZM35,41.86l0,0Zm20.05,0,0,0ZM41.86,35l0,0Zm6.25,0,0,0Z" transform="translate(-10.25 -10.26)"/></g><text x="0" y="84.49" fill="#000000" font-size="5px" font-weight="bold" font-family="'Helvetica Neue', Helvetica, Arial-Unicode, Arial, Sans-serif">Created by Wara's</text><text x="0" y="89.49" fill="#000000" font-size="5px" font-weight="bold" font-family="'Helvetica Neue', Helvetica, Arial-Unicode, Arial, Sans-serif">from the Noun Project</text></svg>